<?xml version="1.0" encoding="utf-8"?>
<!-- Generator: Adobe Illustrator 22.0.1, SVG Export Plug-In . SVG Version: 6.00 Build 0)  -->
<svg version="1.1" id="Layer_1" xmlns="http://www.w3.org/2000/svg" xmlns:xlink="http://www.w3.org/1999/xlink" x="0px" y="0px"
	 viewBox="0 0 582 275.6" style="enable-background:new 0 0 582 275.6;" xml:space="preserve">
<style type="text/css">
	.st0{fill:#fff;}
</style>
<title>Shaastra Tall Black</title>
<g>
	<path class="st0" d="M12.7,237.9h31.1c2,0,3.9,1.1,5,3c0.8,1.3,1.3,2.8,1.3,4.4v0.3l-0.2,0.2H16.3v6.4H43c3.3-0.2,6.3,2.2,6.9,5.3
		l0.3,1.9v6.4c0,2.5-1.3,4.9-3.3,6.3c-0.9,0.5-2,0.9-3.1,0.9l0,0H12.7c-0.6-0.2-1.1-0.3-1.7-0.5c-1.6-0.5-3-1.7-3.8-3.1
		c-0.6-1.1-0.9-2.2-0.9-3.5v-0.2h33.9v-6.3H13.5c-3.3,0.2-6.3-2.2-6.9-5.3l-0.3-1.9V245c0-2.7,1.3-5,3.5-6.4
		C10.6,238.1,11.6,237.9,12.7,237.9z"/>
	<path class="st0" d="M52.4,238.1H62l0.2,0.2V273l-0.2,0.2h-9.6l-0.2-0.2v-34.7L52.4,238.1z M86.3,238.1h9.6l0.2,0.2V273l-0.2,0.2
		h-9.6l-0.2-0.2v-13H65.3l-0.2-0.2v-7.4l0.2-0.2h20.9v-13.8L86.3,238.1z"/>
	<path class="st0" d="M130.3,237.6c0.2,0.2,2.7,4.7,7.5,13.8l11.8,21.3h-0.2h-12.1c-1.3-1.7-2.2-3.6-3.1-5.5l-0.5-0.5h-11.5H121
		h-1.1h-5.8v-0.2l4.2-7.4h4.9h1.3h1.4h3.8l0,0c-4.2-8-6.6-12.1-6.7-12.6l-14.1,26.1H96.7l-0.2-0.2l19.3-35l0,0h14.5V237.6z"/>
	<path class="st0" d="M184.6,237.6c0.2,0.2,2.7,4.7,7.5,13.8l11.8,21.3h-0.2h-12.1c-1.3-1.7-2.2-3.6-3.1-5.5l-0.5-0.5h-11.5h-1.3
		h-1.1h-5.7v-0.2l4.2-7.4h4.9h1.3h1.4h3.8l0,0c-4.2-8-6.6-12.1-6.7-12.6l-14.1,26.1h-11.9l-0.2-0.2l19.3-35l0,0h14.2V237.6z"/>
	<path class="st0" d="M208.9,237.9H240c2,0,3.9,1.1,5,3c0.8,1.3,1.3,2.8,1.3,4.4v0.3l-0.2,0.2h-33.6v6.4h26.7
		c3.3-0.2,6.3,2.2,6.9,5.3l0.3,1.9v6.4c0,2.5-1.3,4.9-3.3,6.3c-0.9,0.5-2,0.9-3.1,0.9l0,0h-31c-0.6-0.2-1.1-0.3-1.7-0.5
		c-1.6-0.5-3-1.7-3.8-3.1c-0.6-1.1-0.9-2.2-0.9-3.5v-0.2h33.7v-6.3h-26.7c-3.3,0.2-6.3-2.2-6.9-5.3l-0.3-1.9V245
		c0-2.7,1.3-5,3.5-6.4C206.8,238.1,207.9,237.9,208.9,237.9z"/>
	<path class="st0" d="M248.4,237.6h43.8l0.2,0.2v7.4l-0.2,0.2h-17V273l-0.2,0.2h-9.7l-0.2-0.2v-27.5h-16.8l-0.2-0.2v-7.4
		L248.4,237.6z"/>
	<path class="st0" d="M294.4,237.6h36.9c3.3,0,5.5,1.7,6.6,5.3c0.2,0.6,0.3,1.3,0.3,2v6.9c0,2.5-1.1,4.7-3.1,6.1
		c-1.1,0.6-2.4,1.1-3.8,1.1H326l13.5,13.8l0,0H326l-20.9-20.7v-0.2H328v-6.6h-23.9l0,0l-0.2,27.5l0,0H294l-0.2-0.2v-34.8
		L294.4,237.6z"/>
	<path class="st0" d="M374.8,237.6c0.2,0.2,2.7,4.7,7.5,13.8l11.8,21.3h-0.2H382c-1.3-1.7-2.2-3.6-3.1-5.5l-0.5-0.5H367h-1.3h-0.9
		H359v-0.2l4.2-7.4h4.9h1.3h1.4h3.8l0,0c-4.2-8-6.6-12.1-6.7-12.6l-14.1,26.1h-11.9l-0.2-0.2l19.3-35l0,0h13.8V237.6z"/>
	<path class="st0" d="M401.5,238.4h31.7c1.9,0.2,3.8,1.3,4.7,3c0.6,1.3,1.1,2.7,1.1,4.1v7.1c0.2,3.8-2.7,7.1-6.4,7.2
		c-0.2,0-0.5,0-0.6,0h-26.4v6.1h33.3l0.2,0.2c-0.2,1.7-0.8,3.3-1.9,4.7c-1.1,1.3-2.7,2-4.4,2l-0.2,0.2h-36.9l-0.2-0.2v-13.5
		c-0.2-3.8,2.7-7.1,6.6-7.2c0.2,0,0.3,0,0.6,0h26.4v-6.3h-33.3l-0.2-0.2v-0.3c0-2.5,1.1-4.7,3.1-6.1
		C399.6,238.7,400.5,238.4,401.5,238.4z"/>
	<path class="st0" d="M448.1,238.1h29.5c3.3-0.2,6.3,2.2,6.9,5.3l0.3,1.7v20.7c0,2.5-1.3,5-3.5,6.4c-0.9,0.5-1.9,0.8-2.8,0.8h-30.9
		c-2,0-3.9-1.1-5-2.8c-0.8-1.3-1.3-2.8-1.3-4.4v-20.4c-0.2-3.8,2.7-7.1,6.6-7.2C447.6,238.1,447.9,238.1,448.1,238.1L448.1,238.1z
		 M450.9,245.2v20.2h23.7v-20.2H450.9z"/>
	<path class="st0" d="M492.4,238.4h31.7c1.9,0.2,3.8,1.3,4.7,3c0.6,1.3,1.1,2.7,1.1,4.1v7.1c0.2,3.8-2.7,7.1-6.4,7.2
		c-0.2,0-0.5,0-0.6,0h-26.4v6.1h33.3l0.2,0.2c-0.2,1.7-0.8,3.3-1.9,4.7c-1.1,1.3-2.7,2-4.4,2l-0.2,0.2h-36.9l-0.2-0.2v-13.5
		c-0.2-3.8,2.7-7.1,6.6-7.2c0.2,0,0.3,0,0.6,0H520v-6.3h-33.3l-0.2-0.2v-0.3c0-2.5,1.1-4.7,3.1-6.1
		C490.5,238.7,491.4,238.4,492.4,238.4z"/>
	<path class="st0" d="M539,238.1h29.5c3.3-0.2,6.3,2.2,6.9,5.3l0.3,1.7v20.7c0,2.5-1.3,5-3.5,6.4c-0.9,0.5-1.9,0.8-2.8,0.8h-30.9
		c-2,0-3.9-1.1-5-2.8c-0.8-1.3-1.3-2.8-1.3-4.4v-20.4c-0.2-3.8,2.7-7.1,6.6-7.2C538.7,238.1,538.8,238.1,539,238.1L539,238.1z
		 M541.8,245.2v20.2h23.7v-20.2H541.8z"/>
	<g>
		<path class="st0" d="M169,98.1l-62-35.8c-1.4-0.8-3-1.3-4.7-1.3c-5.2,0-9.4,4.2-9.4,9.4v70.3c0,15.1,8.2,29.2,21.2,36.7l62,35.8
			c1.4,0.8,3,1.3,4.7,1.3l0,0c2.5,0,4.9-0.9,6.6-2.7c1.9-1.7,2.8-4.2,2.8-6.7v-70.3C190.2,119.7,182.2,105.6,169,98.1z M124.5,160.9
			l-0.3-0.2c-6.7-3.9-10.8-11.1-10.8-18.8c0-3.9,3.1-7.2,7.1-7.2c1.3,0,2.5,0.3,3.6,0.9l0.5,0.3c6.6,3.8,10.7,11,10.7,18.5
			c0.2,4.1-3.1,7.4-7.1,7.4C127,162,125.7,161.5,124.5,160.9L124.5,160.9z M160.2,140.3l-0.3-0.2c-6.7-3.9-10.8-11.1-10.8-18.8
			c0-3.9,3.1-7.2,7.1-7.2c1.3,0,2.5,0.3,3.6,0.9l0.5,0.3c6.6,3.8,10.7,11,10.7,18.5c0.2,4.1-3.1,7.4-7.1,7.4
			C162.6,141.3,161.3,140.9,160.2,140.3L160.2,140.3z"/>
		<path class="st0" d="M280.2,61.7c-1.7,0-3.3,0.5-4.7,1.3l-60.9,35.2c-13,7.5-21.2,21.5-21.2,36.7v71.6c0,5.2,4.2,9.4,9.4,9.4l0,0
			c1.7,0,3.3-0.5,4.7-1.3l60.9-35.2c13-7.5,21.2-21.5,21.2-36.7V71.1C289.6,65.9,285.3,61.7,280.2,61.7L280.2,61.7z M235.7,162.1
			c0,7.7-4.1,14.9-10.8,18.8c-3.5,2-7.8,0.8-9.7-2.7c-0.6-1.1-0.9-2.4-0.9-3.6V174c0-7.7,4.1-14.8,10.7-18.5c3.5-2,7.8-0.8,9.9,2.7
			c0.6,1.1,0.9,2.4,0.9,3.6L235.7,162.1z M270.7,100.8c0,7.7-4.1,14.9-10.8,18.8c-3.5,2-7.8,0.8-9.7-2.7c-0.6-1.1-0.9-2.4-0.9-3.6
			v-0.6c0-7.7,4.1-14.8,10.7-18.5c3.5-2,7.8-0.8,9.9,2.7c0.6,1.1,0.9,2.4,0.9,3.6L270.7,100.8z"/>
		<path class="st0" d="M368.5,98.1l-62-35.8c-1.4-0.8-3-1.3-4.7-1.3c-5.2,0-9.4,4.2-9.4,9.4v70.3c0,15.1,8.2,29,21.2,36.7l62,35.8
			c1.4,0.8,3,1.3,4.7,1.3l0,0c2.5,0,4.9-0.9,6.6-2.7c1.9-1.7,2.8-4.2,2.8-6.7v-70.3C389.7,119.7,381.7,105.6,368.5,98.1z M334.9,115
			c0,4.1-3.3,7.2-7.2,7.2c-1.3,0-2.5-0.3-3.6-0.9l-0.3-0.2c-6.7-3.9-10.8-11.1-10.8-18.8l0,0c0-3.9,3.1-7.2,7.1-7.2
			c1.3,0,2.5,0.3,3.6,0.9l0.5,0.3C330.9,100.3,334.9,107.3,334.9,115L334.9,115z M359.7,182.2l-0.3-0.2
			c-6.7-3.9-10.8-11.1-10.8-18.8c0-3.9,3.1-7.2,7.1-7.2c1.3,0,2.5,0.3,3.6,0.9l0.5,0.3c6.6,3.8,10.7,11,10.7,18.5
			c0,4.1-3.1,7.4-7.1,7.4C362.3,183.3,360.8,183,359.7,182.2L359.7,182.2z"/>
		<path class="st0" d="M275,43.3L214.1,8.1c-13.2-7.5-29.2-7.5-42.4,0l-62,35.8c-4.6,2.7-6,8.3-3.5,12.9c0.8,1.4,2,2.7,3.5,3.5
			l60.7,35.2c13.2,7.5,29.2,7.5,42.4,0l62-35.8c4.6-2.7,6-8.3,3.5-12.9C277.7,45.3,276.4,44.1,275,43.3L275,43.3z M166.5,57.9
			l-0.5,0.3c-6.6,3.8-14.8,3.8-21.5,0c-3.5-2-4.7-6.4-2.7-9.9c0.6-1.1,1.6-2,2.7-2.7l0.3-0.2c6.7-3.9,14.9-3.9,21.7,0
			c3.5,2,4.6,6.4,2.7,9.7C168.6,56.3,167.6,57.3,166.5,57.9z M237.2,57.4l-0.5,0.3c-6.6,3.8-14.8,3.8-21.5,0c-3.5-2-4.7-6.4-2.7-9.9
			c0.6-1.1,1.6-2,2.7-2.7l0.3-0.2c6.7-3.9,14.9-3.9,21.7,0c3.5,2,4.6,6.4,2.5,9.9C239,56,238.3,56.8,237.2,57.4L237.2,57.4z"/>
		<path class="st0" d="M479.7,61.7c-1.7,0-3.3,0.5-4.7,1.3l-60.9,35.2c-13,7.5-21.2,21.5-21.2,36.7v71.6c0,5.2,4.2,9.4,9.4,9.4l0,0
			c1.7,0,3.3-0.5,4.7-1.3l60.9-35.2c13-7.5,21.2-21.5,21.2-36.7V71.1C489.1,65.9,484.8,61.7,479.7,61.7L479.7,61.7z M435.4,162.1
			c0,7.7-4.1,14.9-10.8,18.8c-3.5,2-7.8,0.8-9.7-2.7c-0.6-1.1-0.9-2.4-0.9-3.6V174c0-7.7,4.1-14.8,10.7-18.5c3.5-2,7.8-0.8,9.9,2.7
			c0.6,1.1,0.9,2.4,0.9,3.6L435.4,162.1z M470.2,100.8c0,7.7-4.1,14.9-10.8,18.8c-3.5,2-7.8,0.8-9.7-2.7c-0.6-1.1-0.9-2.4-0.9-3.6
			v-0.6c0-7.7,4.1-14.8,10.8-18.5c3.5-2,7.8-0.8,9.9,2.7c0.6,1.1,0.9,2.4,0.9,3.6L470.2,100.8z"/>
		<path class="st0" d="M474.6,43.3L413.7,8.1c-13.2-7.5-29.2-7.5-42.4,0l-62,35.8c-4.6,2.7-6,8.3-3.5,12.9c0.8,1.4,2,2.7,3.5,3.5
			l60.9,35.2c13.2,7.5,29.2,7.5,42.4,0l62-35.8c4.6-2.7,6-8.3,3.5-12.9C477.2,45.3,476.1,44.1,474.6,43.3L474.6,43.3z M366,57.9
			l-0.5,0.3c-6.6,3.8-14.8,3.8-21.5,0c-3.5-2-4.7-6.4-2.7-9.9c0.6-1.1,1.6-2,2.7-2.7l0.3-0.2c6.7-3.9,14.9-3.9,21.7,0
			c3.5,2,4.6,6.4,2.7,9.7C368.1,56.3,367.1,57.3,366,57.9z M436.7,57.4l-0.5,0.3c-6.6,3.8-14.8,3.8-21.5,0c-3.5-2-4.7-6.4-2.7-9.9
			c0.6-1.1,1.6-2,2.7-2.7l0.3-0.2c6.7-3.9,14.9-3.9,21.7,0c3.5,2,4.6,6.4,2.5,9.9C438.7,56,437.8,56.8,436.7,57.4L436.7,57.4z"/>
	</g>
</g>
</svg>
